#!OML:ASF X:\für Bonn\!DataBase\2005_08_12_Daniel\c3d\Daniel.ASF
:FULLY-SPECIFIED
:DEGREES
262
root 21.3007 1.38149 -0.1093 -1269.88 262.996 79.5532
lowerback 39.0384 -0.0338686 2.72018
upperback 19.2364 -1.69294 -3.47961
thorax 1.99721 -1.87344 -4.6004
lowerneck 13.6141 14.1414 -1.77994
upperneck 8.95308 18.1742 -5.66448
head 1.09467 8.69711 -2.02009
rclavicle 3.57812e-014 5.96354e-014
rhumerus -389.473 33.2209 252.886
rradius 88.2302
rwrist -13.022
rhand -13.1195 743.343
rfingers 7.12502
rthumb 12.978 713.767
lclavicle 3.57812e-014 5.96354e-014
lhumerus -369.035 -17.1605 -269.969
lradius 108.152
lwrist 17.0498
lhand -22.8335 -734.975
lfingers 7.12502
lthumb 3.60384 14.9739
rfemur -2.40237 -14.4994 12.0262
rtibia 53.9883
rfoot 386.695 0.930056
rtoes 7.00313
lfemur -36.7532 36.1453 -19.4814
ltibia 121.835
lfoot 32.2414 -3.90628
ltoes 4.26049
263
root 21.3234 1.38023 -0.111886 -1269.73 263.083 78.7757
lowerback 38.5882 -0.0799368 2.54878
upperback 19.107 -1.77531 -3.51136
thorax 1.97888 -1.90908 -4.52177
lowerneck 13.3724 13.9047 -1.9856
upperneck 9.2288 17.8618 -5.49905
head 1.17684 8.52145 -1.90348
rclavicle 2.78299e-014 -8.26944e-014
rhumerus -390.364 32.9631 252.192
rradius 88.8542
rwrist -12.7146
rhand -12.9851 743.473
rfingers 7.12502
rthumb 13.1076 713.905
lclavicle 2.78299e-014 -8.26944e-014
lhumerus -369.485 -17.5369 -269.89
lradius 108.991
lwrist 17.1394
lhand -22.6991 -735.397
lfingers 7.12502
lthumb 3.73366 14.5503
rfemur -1.56246 -13.9351 11.9542
rtibia 53.5809
rfoot 386.769 0.507489
rtoes 7.26026
lfemur -36.1875 35.5734 -18.9342
ltibia 121.59
lfoot 32.4452 -4.14288
ltoes 4.31166
264
root 21.3444 1.37804 -0.114296 -1269.44 263.182 77.8474
lowerback 38.175 -0.128406 2.3552
upperback 18.949 -1.86644 -3.51463
thorax 1.9214 -1.95267 -4.39664
lowerneck 13.1931 13.6932 -2.29518
upperneck 9.46319 17.5589 -5.28209
head 1.22327 8.34926 -1.7642
rclavicle -7.15625e-015 1.22451e-013
rhumerus -391.29 32.7882 251.54
rradius 89.4161
rwrist -12.2512
rhand -12.9745 743.64
rfingers 7.12502
rthumb 13.1178 714.072
lclavicle -7.15625e-015 1.22451e-013
lhumerus -370.029 -17.7841 -269.747
lradius 109.804
lwrist 17.1507
lhand -22.6398 -735.937
lfingers 7.12502
lthumb 3.79094 14.0089
rfemur -0.764046 -13.408 11.9039
rtibia 53.2565
rfoot 386.78 0.123833
rtoes 7.59409
lfemur -35.6371 35.0058 -18.3851
ltibia 121.363
lfoot 32.5573 -4.5406
ltoes 3.9909
265
root 21.3681 1.37661 -0.115928 -1269.12 263.282 76.9094
lowerback 37.7428 -0.176778 2.20328
upperback 18.7984 -1.94142 -3.53488
thorax 1.88071 -1.98224 -4.31747
lowerneck 12.9996 13.4582 -2.60339
upperneck 9.65349 17.2254 -5.0206
head 1.25371 8.16592 -1.61219
rclavicle 1.43125e-014 -1.28812e-013
rhumerus -392.18 32.5362 250.933
rradius 89.9318
rwrist -11.539
rhand -12.9969 743.816
rfingers 7.12502
rthumb 13.0962 714.247
lclavicle 1.43125e-014 -1.28812e-013
lhumerus -370.562 -18.07 -269.669
lradius 110.571
lwrist 17.2405
lhand -22.5535 -736.581
lfingers 7.12502
lthumb 3.87429 13.3632
rfemur -0.0108656 -12.8892 11.8629
rtibia 53.0022
rfoot 386.712 -0.11242
rtoes 7.65253
lfemur -35.1063 34.373 -17.8437
ltibia 121.129
lfoot 32.6368 -4.87374
ltoes 3.83315
266
root 21.3919 1.37517 -0.117125 -1269 263.375 76.1739
lowerback 37.3175 -0.223485 2.00806
upperback 18.6377 -2.02775 -3.54143
thorax 1.82984 -2.02178 -4.1973
lowerneck 12.7679 13.2441 -2.97344
upperneck 9.89125 16.9153 -4.72755
head 1.30013 7.98932 -1.43866
rclavicle -2.3059e-014 -1.98785e-014
rhumerus -393.055 32.3316 250.408
rradius 90.4137
rwrist -10.7345
rhand -13.0173 743.886
rfingers 7.12502
rthumb 13.0765 714.316
lclavicle -2.3059e-014 -1.98785e-014
lhumerus -371.128 -18.2537 -269.568
lradius 111.27
lwrist 17.1802
lhand -22.5075 -737.318
lfingers 7.12502
lthumb 3.91871 12.6255
rfemur 0.715297 -12.442 11.7729
rtibia 52.8461
rfoot 386.544 -0.280019
rtoes 7.56591
lfemur -34.5891 33.6895 -17.3557
ltibia 120.887
lfoot 32.6588 -5.21869
ltoes 3.56785
267
root 21.4151 1.37298 -0.118198 -1268.48 263.465 75.0282
lowerback 36.9423 -0.282806 1.87875
upperback 18.4592 -2.10718 -3.54513
thorax 1.74568 -2.05226 -4.10888
lowerneck 12.6048 13.0245 -3.34526
upperneck 10.0465 16.5888 -4.40367
head 1.30766 7.81051 -1.26412
rclavicle 2.38542e-014 -1.0138e-013
rhumerus -393.869 32.0665 249.949
rradius 90.8287
rwrist -9.75636
rhand -12.9747 743.951
rfingers 7.12502
rthumb 13.1176 714.384
lclavicle 2.38542e-014 -1.0138e-013
lhumerus -371.73 -18.4396 -269.482
lradius 111.918
lwrist 17.0678
lhand -22.4376 -737.994
lfingers 7.12502
lthumb 3.98622 11.9484
rfemur 1.40796 -12.0306 11.73
rtibia 52.8064
rfoot 386.255 -0.309598
rtoes 7.29736
lfemur -34.0843 32.9761 -16.8203
ltibia 120.661
lfoot 32.6541 -5.5926
ltoes 3.36793
